<svg width="1728" height="956" viewBox="0 0 1728 956" fill="none" xmlns="http://www.w3.org/2000/svg">
<mask id="mask0_1_14" style="mask-type:luminance" maskUnits="userSpaceOnUse" x="0" y="0" width="1920" height="1150">
<path d="M1920 0H0V1150H1920V0Z" fill="white"/>
</mask>
<g mask="url(#mask0_1_14)">
<path d="M1932 -1H-2V878H1932V-1Z" fill="url(#paint0_linear_1_14)"/>
<path d="M-167 519L-126.789 547.882C-86.3639 576.764 -5.94168 634.527 74.2667 656.563C154.475 678.813 234.469 665.121 314.678 639.234C394.886 613.133 475.308 574.624 555.517 576.336C635.725 578.261 715.719 620.193 795.928 631.746C876.136 643.085 956.558 623.83 1036.77 601.367C1116.97 578.903 1196.97 553.23 1277.18 548.524C1357.39 544.031 1437.81 560.29 1518.02 584.252C1598.22 608.213 1678.22 639.448 1718 655.279L1758 670.897V872H1718C1678.22 872 1598.22 872 1518.02 872C1437.81 872 1357.39 872 1277.18 872C1196.97 872 1116.97 872 1036.77 872C956.558 872 876.136 872 795.928 872C715.719 872 635.725 872 555.517 872C475.308 872 394.886 872 314.678 872C234.469 872 154.475 872 74.2667 872C-5.94168 872 -86.3639 872 -126.789 872H-167V519Z" fill="#F1F1F1"/>
<path d="M1920 568H1812.07C1704.13 568 1488.27 568 1272.4 640C1056.53 712 840.667 856 624.8 880.075C408.933 903.25 193.067 808.75 -22.8 772.075C-238.667 736.75 -454.533 759.25 -670.4 831.925C-886.267 903.25 -1102.13 1024.75 -1210.07 1083.92L-1318 1144V1216H-1210.07C-1102.13 1216 -886.267 1216 -670.4 1216C-454.533 1216 -238.667 1216 -22.8 1216C193.067 1216 408.933 1216 624.8 1216C840.667 1216 1056.53 1216 1272.4 1216C1488.27 1216 1704.13 1216 1812.07 1216H1920V568Z" fill="#FAFAFA"/>
<path d="M1331.42 1008.41C1066.62 906.627 1062.78 865.202 850.622 892.053C638.46 918.904 594.003 743.115 388.203 720.065C182.402 697.015 97.0905 722.331 -1.36559 746.916C-1.36559 855.257 -4 1494 -4 1494H1920V915.237C1920 915.237 1596.71 1110.38 1331.42 1008.41Z" fill="#FAFAFA"/>
</g>
<defs>
<linearGradient id="paint0_linear_1_14" x1="965" y1="-1" x2="965" y2="878" gradientUnits="userSpaceOnUse">
<stop stop-color="#E6E6E6"/>
<stop offset="0.684408" stop-color="white"/>
</linearGradient>
</defs>
</svg>
